<svg xmlns="http://www.w3.org/2000/svg" viewBox="0 0 1198.32 206.56">
      <path d="M141.02,74.37c-2.53-2.49-5.46-4.92-8.8-7.27-6.06-4.26-13.62-7.71-22.7-10.36-9.08-2.65-19.77-3.97-32.06-3.97-7.94,0-15.7.99-23.27,2.98-7.57,1.99-14.61,4.97-21.14,8.94-6.53,3.97-12.3,8.99-17.31,15.04-5.01,6.06-8.89,13.24-11.63,21.56-2.74,8.33-4.11,17.69-4.11,28.09,0,17.41,3.69,31.83,11.07,43.27,7.38,11.45,16.98,19.96,28.8,25.54,11.82,5.58,24.35,8.37,37.6,8.37,10.4,0,20.05-1.09,28.94-3.26,8.89-2.17,16.74-5.34,23.55-9.5,4.19-2.56,7.88-5.45,11.07-8.65v17.45h60.44V0h-60.44v74.37ZM135.35,149.96c-2.08,2.94-4.73,5.53-7.94,7.8-3.22,2.27-6.95,4.02-11.21,5.25-4.26,1.23-9.04,1.84-14.33,1.84-8.89,0-16.36-1.65-22.42-4.97-6.06-3.31-10.55-7.66-13.48-13.05-2.94-5.39-4.4-11.11-4.4-17.17,0-3.78.52-7.38,1.56-10.78,1.04-3.41,2.65-6.57,4.82-9.51,2.17-2.93,4.87-5.53,8.09-7.8,3.21-2.27,7-4.02,11.35-5.25,4.35-1.23,9.17-1.84,14.47-1.84,8.89,0,16.27,1.66,22.13,4.97,5.86,3.31,10.26,7.62,13.19,12.91,2.93,5.3,4.4,11.07,4.4,17.31,0,3.59-.52,7.14-1.56,10.64-1.04,3.5-2.6,6.72-4.68,9.65Z"/>
      <path d="M403.76,102.15c-4.16-11.16-10.36-20.43-18.58-27.81-8.23-7.38-18.4-12.81-30.5-16.32-12.11-3.5-26.01-5.25-41.71-5.25-12.87,0-24.54,1.23-35.04,3.69-10.5,2.46-19.77,5.91-27.81,10.36-8.04,4.45-14.75,9.84-20.15,16.17-5.39,6.34-9.51,13.43-12.34,21.28-2.84,7.85-4.26,16.32-4.26,25.4,0,14.95,3.87,28.23,11.63,39.87,7.75,11.63,19.1,20.71,34.05,27.24,14.94,6.53,33.01,9.79,54.19,9.79s38.11-2.23,51.36-6.67c13.24-4.44,23.31-10.31,30.22-17.59,6.9-7.28,11.39-15.18,13.48-23.69h-62.42c-3.22,3.22-7.62,5.58-13.19,7.09-5.58,1.52-11.97,2.27-19.15,2.27-9.27,0-17.02-1.6-23.27-4.82-6.24-3.21-10.88-7.71-13.9-13.48-1.28-2.44-2.27-5.05-3.01-7.8h136.65c0-15.32-2.08-28.56-6.24-39.72ZM274.75,113.5c.98-2.51,2.17-4.89,3.6-7.09,2.08-3.21,4.77-5.91,8.09-8.09,3.31-2.17,7.14-3.87,11.49-5.11,4.35-1.23,9.17-1.84,14.47-1.84,4.92,0,9.36.43,13.34,1.28,3.97.85,7.56,2.23,10.78,4.11,3.21,1.89,5.86,4.21,7.94,6.95,2.08,2.74,3.69,6.01,4.82,9.79h-74.53Z"/>
      <path d="M487.64,108.53c1.99-2.93,4.54-5.44,7.66-7.52,3.12-2.08,6.81-3.69,11.07-4.82,4.26-1.13,9.12-1.7,14.61-1.7s10.78.57,15.32,1.7c4.54,1.13,8.46,2.84,11.78,5.11,3.31,2.27,5.82,5.21,7.52,8.8h62.42c-1.89-12.67-6.72-23.22-14.47-31.64-7.76-8.42-18.49-14.8-32.21-19.15-13.72-4.35-30.41-6.53-50.08-6.53-13.05,0-24.93,1.23-35.61,3.69-10.69,2.46-20.1,5.91-28.23,10.36-8.14,4.45-14.99,9.84-20.57,16.17-5.58,6.34-9.79,13.43-12.63,21.28-2.84,7.85-4.26,16.32-4.26,25.4,0,14.95,3.92,28.23,11.78,39.87,7.85,11.63,19.29,20.71,34.33,27.24,15.04,6.53,33.43,9.79,55.19,9.79,19.67,0,36.41-2.37,50.22-7.09,13.81-4.73,24.64-11.35,32.49-19.86,7.85-8.51,12.53-18.54,14.05-30.08h-62.42c-3.03,4.16-7.48,7.76-13.34,10.78-5.87,3.03-12.96,4.54-21.28,4.54-9.08,0-16.51-1.56-22.27-4.68-5.77-3.12-10.07-7.33-12.91-12.63-2.84-5.29-4.26-11.25-4.26-17.88,0-3.97.52-7.75,1.56-11.35,1.04-3.59,2.55-6.85,4.54-9.79Z"/>
      <rect x="629.65" width="60.44" height="202.59"/>
      <rect x="714.26" y="56.75" width="60.44" height="145.84"/>
      <rect x="714.54" width="60.15" height="42.28"/>
      <path d="M974.87,71.22c-5.58-6.05-12.53-10.64-20.85-13.76-8.33-3.12-18.07-4.68-29.23-4.68s-21.95,1.47-31.21,4.4c-9.27,2.94-17.22,6.95-23.83,12.06-3.9,3.01-7.3,6.29-10.21,9.83v-22.31h-60.44v145.84h60.44v-67.25c0-7.75,1.46-14.47,4.4-20.15,2.93-5.67,7.24-10.07,12.91-13.19s12.58-4.68,20.71-4.68c7.56,0,13.81,1.47,18.73,4.4,4.92,2.93,8.61,7.19,11.07,12.77,2.46,5.58,3.69,12.34,3.69,20.29v67.81h60.72v-80.3c0-10.78-1.42-20.47-4.26-29.08-2.84-8.6-7.05-15.93-12.63-21.99Z"/>
      <path d="M1121,165.71c-5.58,1.52-11.97,2.27-19.15,2.27-9.27,0-17.02-1.6-23.27-4.82-6.24-3.21-10.88-7.71-13.9-13.48-1.28-2.44-2.27-5.05-3.01-7.8h136.65c0-15.32-2.08-28.56-6.24-39.72-4.16-11.16-10.36-20.43-18.58-27.81-8.23-7.38-18.4-12.81-30.5-16.32-12.11-3.5-26.01-5.25-41.71-5.25-12.87,0-24.54,1.23-35.04,3.69-10.5,2.46-19.77,5.91-27.81,10.36-8.04,4.45-14.75,9.84-20.15,16.17-5.39,6.34-9.51,13.43-12.34,21.28-2.84,7.85-4.26,16.32-4.26,25.4,0,14.95,3.87,28.23,11.63,39.87,7.75,11.63,19.1,20.71,34.05,27.24,14.94,6.53,33.01,9.79,54.19,9.79s38.11-2.23,51.36-6.67c13.24-4.44,23.31-10.31,30.22-17.59,6.9-7.28,11.39-15.18,13.48-23.69h-62.42c-3.22,3.22-7.62,5.58-13.19,7.09ZM1066.66,106.4c2.08-3.21,4.77-5.91,8.09-8.09,3.31-2.17,7.14-3.87,11.49-5.11,4.35-1.23,9.17-1.84,14.47-1.84,4.92,0,9.36.43,13.34,1.28,3.97.85,7.56,2.23,10.78,4.11,3.21,1.89,5.86,4.21,7.94,6.95,2.08,2.74,3.69,6.01,4.82,9.79h-74.53c.98-2.51,2.17-4.89,3.6-7.09Z"/>
</svg>