<svg id="Layer_2" data-name="Layer 2" xmlns="http://www.w3.org/2000/svg" viewBox="0 0 1089.51 170">
  <path
    d="M179.46,21.37c-8.33-7.08-18.02-12.41-29.07-16-11.06-3.58-22.89-5.37-35.5-5.37H0v166.74h114.89c10.12,0,19.73-1.17,28.84-3.5,9.11-2.33,17.47-5.76,25.1-10.27,7.63-4.51,14.25-10.12,19.85-16.81,5.6-6.69,9.92-14.44,12.96-23.24,3.04-8.79,4.55-18.64,4.55-29.54,0-13.54-2.38-25.49-7.12-35.85-4.75-10.35-11.29-19.07-19.62-26.15ZM150.04,100.65c-1.79,4.98-4.2,9.19-7.24,12.61-3.04,3.43-6.5,6.19-10.39,8.29-3.89,2.1-7.94,3.66-12.14,4.67-4.2,1.01-8.33,1.52-12.38,1.52h-56.05V39h56.05c4.98,0,10.12.78,15.41,2.33,5.29,1.56,10.16,4.05,14.6,7.47,4.44,3.43,8.02,7.98,10.74,13.66,2.72,5.69,4.09,12.65,4.09,20.9,0,6.54-.9,12.3-2.69,17.28Z" />
  <path
    d="M366.16,84.07c-3.43-9.18-8.52-16.81-15.3-22.89-6.77-6.07-15.14-10.54-25.1-13.43-9.96-2.88-21.41-4.32-34.33-4.32-10.59,0-20.2,1.01-28.84,3.04-8.64,2.02-16.27,4.87-22.89,8.52-6.62,3.66-12.14,8.1-16.58,13.31-4.44,5.22-7.82,11.06-10.16,17.51-2.33,6.46-3.5,13.43-3.5,20.9,0,12.3,3.19,23.24,9.57,32.81,6.38,9.57,15.72,17.05,28.02,22.42,12.3,5.37,27.17,8.06,44.6,8.06s31.37-1.83,42.27-5.49c10.9-3.66,19.19-8.48,24.87-14.48,5.68-5.99,9.38-12.49,11.09-19.5h-51.38c-2.65,2.65-6.27,4.59-10.86,5.84-4.59,1.25-9.85,1.87-15.76,1.87-7.63,0-14.01-1.32-19.15-3.97-5.14-2.65-8.95-6.34-11.44-11.09-1.05-2.01-1.87-4.15-2.48-6.42h112.47c0-12.61-1.71-23.51-5.14-32.69ZM259.98,93.41c.81-2.07,1.78-4.02,2.96-5.84,1.71-2.65,3.93-4.86,6.66-6.66,2.72-1.79,5.87-3.19,9.46-4.2,3.58-1.01,7.55-1.52,11.91-1.52,4.05,0,7.71.35,10.98,1.05,3.27.7,6.23,1.83,8.87,3.39,2.65,1.56,4.82,3.47,6.54,5.72,1.71,2.26,3.04,4.94,3.97,8.06h-61.34Z" />
  <path
    d="M435.19,89.32c1.63-2.41,3.74-4.47,6.31-6.19,2.57-1.71,5.6-3.04,9.11-3.97s7.51-1.4,12.03-1.4,8.87.47,12.61,1.4,6.97,2.33,9.69,4.2c2.72,1.87,4.79,4.28,6.19,7.24h51.38c-1.56-10.43-5.53-19.11-11.91-26.04-6.39-6.93-15.22-12.18-26.5-15.76-11.29-3.58-25.03-5.37-41.22-5.37-10.74,0-20.51,1.01-29.31,3.04-8.8,2.02-16.54,4.87-23.24,8.52-6.7,3.66-12.34,8.1-16.93,13.31-4.59,5.22-8.06,11.06-10.39,17.51-2.33,6.46-3.5,13.43-3.5,20.9,0,12.3,3.23,23.24,9.69,32.81,6.46,9.57,15.88,17.05,28.26,22.42,12.38,5.37,27.52,8.06,45.42,8.06,16.19,0,29.97-1.95,41.33-5.84,11.36-3.89,20.28-9.34,26.74-16.35,6.46-7.01,10.31-15.26,11.56-24.75h-51.38c-2.49,3.43-6.15,6.39-10.98,8.87-4.83,2.49-10.67,3.74-17.51,3.74-7.47,0-13.58-1.28-18.33-3.85-4.75-2.57-8.29-6.03-10.63-10.39-2.33-4.36-3.5-9.26-3.5-14.71,0-3.27.43-6.38,1.28-9.34.85-2.96,2.1-5.64,3.74-8.06Z" />
  <rect x="556.76" width="49.74" height="166.74" />
  <rect x="626.39" y="46.7" width="49.74" height="120.03" />
  <rect x="626.63" width="49.51" height="34.79" />
  <path
    d="M840.88,58.61c-4.59-4.98-10.32-8.76-17.16-11.33-6.85-2.57-14.87-3.85-24.05-3.85s-18.06,1.21-25.69,3.62c-7.63,2.42-14.17,5.72-19.62,9.92-3.21,2.48-6.01,5.18-8.41,8.09v-18.36h-49.74v120.03h49.74v-55.34c0-6.38,1.2-11.91,3.62-16.58,2.41-4.67,5.96-8.29,10.63-10.86s10.35-3.85,17.05-3.85c6.22,0,11.36,1.21,15.41,3.62,4.05,2.42,7.08,5.92,9.11,10.51,2.02,4.59,3.04,10.16,3.04,16.7v55.81h49.97v-66.09c0-8.87-1.17-16.85-3.5-23.94-2.33-7.08-5.8-13.11-10.39-18.1Z" />
  <path
    d="M1019.64,84.07c-3.43-9.18-8.52-16.81-15.3-22.89-6.77-6.07-15.14-10.54-25.1-13.43-9.96-2.88-21.41-4.32-34.33-4.32-10.59,0-20.2,1.01-28.84,3.04-8.64,2.02-16.27,4.87-22.89,8.52-6.62,3.66-12.14,8.1-16.58,13.31-4.44,5.22-7.82,11.06-10.16,17.51-2.33,6.46-3.5,13.43-3.5,20.9,0,12.3,3.19,23.24,9.57,32.81,6.38,9.57,15.72,17.05,28.02,22.42,12.3,5.37,27.17,8.06,44.6,8.06s31.37-1.83,42.27-5.49c10.9-3.66,19.19-8.48,24.87-14.48,5.68-5.99,9.38-12.49,11.09-19.5h-51.38c-2.65,2.65-6.27,4.59-10.86,5.84-4.59,1.25-9.85,1.87-15.76,1.87-7.63,0-14.01-1.32-19.15-3.97-5.14-2.65-8.95-6.34-11.44-11.09-1.05-2.01-1.87-4.15-2.48-6.42h112.47c0-12.61-1.71-23.51-5.14-32.69ZM913.46,93.41c.81-2.07,1.78-4.02,2.96-5.84,1.71-2.65,3.93-4.86,6.66-6.66,2.72-1.79,5.87-3.19,9.46-4.2,3.58-1.01,7.55-1.52,11.91-1.52,4.05,0,7.71.35,10.98,1.05,3.27.7,6.23,1.83,8.87,3.39,2.65,1.56,4.82,3.47,6.54,5.72,1.71,2.26,3.04,4.94,3.97,8.06h-61.34Z" />
</svg>