<svg viewBox="0 0 78 26" xmlns="http://www.w3.org/2000/svg">
  <g clip-path="url(#clip0_21_454)">
    <path
      d="M18.7 10.194C18.67 9.85741 18.67 9.55121 18.3104 9.38993L16.8376 9.84572L16.3789 7.7444C15.9272 9.57225 13.2812 9.1071 12.7925 7.52235C12.1011 5.27844 14.2423 5.30649 14.0718 4.59124C11.9536 2.57407 7.78403 2.32396 5.46762 4.04195C3.91182 5.19429 5.5529 5.16858 6.01849 5.97732C6.93353 7.57143 4.52492 9.55588 3.0037 8.79623C2.52659 8.55781 2.75247 7.77712 2.08866 7.9758L1.85587 9.84572C-1.38019 8.20954 0.532862 12.2042 0.8809 13.7562C1.15749 14.995 0.572045 16.706 2.40904 17.073L2.91611 16.3975C3.006 16.0095 2.00799 15.4859 1.89044 14.8127C1.83743 14.5042 1.87431 13.6206 2.31454 13.5832C2.47818 17.1875 5.14033 16.3717 7.61808 15.6892C7.66187 16.0866 7.09717 15.8879 6.95658 16.2993C6.85516 16.5985 6.94736 16.9982 6.92661 17.3231C8.02374 16.9678 8.54925 18.2674 9.49656 18.1412C10.5038 18.0056 13.4448 16.2829 10.8472 15.9183C11.2782 14.96 12.781 16.3086 13.756 16.3811C15.4777 16.5073 16.5656 15.2615 16.4942 13.5856C17.7596 14.6421 15.7543 16.131 15.9203 16.7364C16.1346 17.5171 17.4945 16.914 17.7158 15.9884C17.884 15.2802 18.7438 10.6217 18.7069 10.1917L18.7 10.194ZM8.30493 15.4555L7.83704 14.0601C6.80215 14.198 5.57826 14.6304 4.62634 13.9338C3.59375 13.1789 4.42812 12.2532 3.46929 11.4866C5.17951 11.5567 8.02604 14.025 8.42248 11.0168C9.50117 11.9237 8.08367 12.7254 8.07675 13.2303C8.06984 13.7398 8.86041 14.5486 8.30493 15.4555ZM14.7171 13.1859C14.346 14.4294 12.2163 14.4855 11.2068 14.0834L10.3862 15.4531C9.98981 14.78 10.7919 13.3495 10.7919 13.2279C10.7896 13.0059 10.1742 12.6974 10.0428 12.4099C9.89991 12.099 9.60258 10.7924 10.3839 11.0097C10.3909 13.8333 13.5647 11.8512 15.1067 11.4749L15.2219 11.9424C14.4613 11.8349 14.8831 12.6342 14.7194 13.1835L14.7171 13.1859Z"
    />
    <path
      d="M11.8796 22.7012C11.716 22.0023 12.4075 21.1912 11.6492 20.5999L10.7088 22.1963C9.79372 21.9485 8.88099 21.855 7.98208 22.2407L7.04169 20.5999C6.34561 21.2052 6.83195 21.9859 6.92414 22.7012C5.59192 21.7288 5.73021 19.6859 4.50632 18.4985C4.14214 19.0876 3.12799 19.1717 3.32622 19.908C3.38614 20.1277 5.50894 23.4211 5.774 23.753C6.25342 24.3514 7.21225 25.1835 7.98669 25.27C8.56752 25.3354 8.95705 25.0596 9.37193 25.0596C9.8283 25.0596 10.2155 25.2957 10.7042 25.2676C13.1335 25.1181 13.8549 21.626 15.3416 20.123L15.443 19.5808L14.1891 18.5009C12.9952 19.707 13.1335 21.6447 11.8819 22.7035L11.8796 22.7012Z"
    />
    <path
      d="M12.2285 16.39C12.7886 17.512 9.97892 18.5101 9.34508 18.5101C9.15147 18.5101 6.78435 17.5564 6.68524 17.4535C6.40635 17.166 6.45936 16.7523 6.46397 16.39C5.16632 16.9697 4.62006 17.0702 3.24866 16.6331C3.221 17.1918 2.91214 17.7434 2.54336 18.1407C2.11465 18.6012 1.44624 18.7087 1.16504 19.1926C2.63095 19.3305 4.0231 19.1061 4.50943 17.5541C6.56308 18.7812 7.60258 20.2467 10.2486 19.8751C11.325 19.7232 13.3394 18.475 13.8442 17.5611C14.9736 18.5194 15.5844 19.5409 17.2969 19.1926L15.0889 16.6612C14.0033 17.1053 13.2496 16.6635 12.2285 16.3877V16.39Z"
    />
    <path
      d="M5.40584 7.48668C6.30014 5.91361 4.88955 5.69857 4.04135 4.70517C2.95344 3.42895 2.33804 1.62447 1.85171 0.0280292C1.2363 -0.0350806 1.48293 0.0233544 1.39765 0.376302C1.08649 1.68992 1.1856 3.16482 1.49676 4.47844C1.89089 6.14033 3.60803 10.6445 5.40584 7.48434V7.48668Z"
    />
    <path
      d="M13.7186 7.97997C15.3897 9.48059 16.2632 7.32784 16.7795 5.93241C17.4871 4.01808 17.796 2.04765 17.2935 0.0281345C16.7035 -0.0653616 16.9363 0.0818947 16.8118 0.355371C16.2264 1.66432 16.0973 2.80964 15.1799 4.07885C14.3571 5.21717 11.9208 6.3695 13.7163 7.97997H13.7186Z"
    />
  </g>
  <path d="M73.2793 0.921387H77.9999V24.3581H73.2793V0.921387Z" />
  <path
    d="M48.8662 0.921387H53.8528L61.665 13.1218C61.9974 13.6759 62.2412 14.0859 62.3964 14.3518C62.5737 14.6178 62.8285 15.0056 63.161 15.5153C63.3826 15.8699 63.5488 16.1248 63.6596 16.2799C63.7926 16.4351 63.9588 16.6899 64.1583 17.0445C64.1583 16.1802 64.1583 15.3048 64.1583 14.4183C64.1583 13.6426 64.1583 12.8558 64.1583 12.058V0.921387H68.7791V24.3581H63.7926L56.0136 12.191C55.526 11.4375 55.0495 10.6728 54.5841 9.89716C54.3182 9.5204 54.1298 9.24337 54.019 9.06607C53.9082 8.88877 53.7309 8.61174 53.4871 8.23498C53.4871 8.83337 53.4871 9.2877 53.4871 9.59797C53.4871 9.88608 53.4871 10.3182 53.4871 10.8945C53.4871 11.6702 53.4871 12.4569 53.4871 13.2548V24.3581H48.8662V0.921387Z"
  />
  <path
    d="M33.8838 24.8569C31.5568 24.8569 29.4735 24.3361 27.634 23.2945C25.8167 22.2528 24.3872 20.8123 23.3456 18.9728C22.3261 17.1333 21.8164 15.0279 21.8164 12.6565C21.8164 10.3073 22.3261 8.20186 23.3456 6.34021C24.3872 4.47857 25.8167 3.02693 27.634 1.9853C29.4735 0.943668 31.5568 0.422852 33.8838 0.422852C36.1887 0.422852 38.2498 0.954749 40.0672 2.01854C41.9066 3.06018 43.3361 4.51182 44.3556 6.37346C45.3972 8.21294 45.918 10.3073 45.918 12.6565C45.918 15.0057 45.3972 17.1111 44.3556 18.9728C43.3139 20.8123 41.8845 22.2528 40.0672 23.2945C38.2498 24.3361 36.1887 24.8569 33.8838 24.8569ZM33.8838 20.3358C35.2579 20.3358 36.4768 20.0144 37.5406 19.3717C38.6266 18.7068 39.4688 17.7982 40.0672 16.6457C40.6655 15.4711 40.9647 14.1303 40.9647 12.6233C40.9647 11.1162 40.6655 9.78647 40.0672 8.63402C39.4688 7.48158 38.6266 6.584 37.5406 5.94129C36.4768 5.27642 35.2468 4.94398 33.8506 4.94398C32.4765 4.94398 31.2465 5.27642 30.1606 5.94129C29.0968 6.584 28.2657 7.49266 27.6673 8.66727C27.0689 9.81971 26.7697 11.1495 26.7697 12.6565C26.7697 14.1857 27.0689 15.5265 27.6673 16.679C28.2657 17.8314 29.0968 18.729 30.1606 19.3717C31.2465 20.0144 32.4876 20.3358 33.8838 20.3358Z"
  />
  <defs>
    <clipPath id="clip0_21_454">
      <rect width="18.6995" height="25.279" fill="white" />
    </clipPath>
  </defs>
</svg>